<svg width="800" height="98" viewBox="0 0 800 98" fill="none" xmlns="http://www.w3.org/2000/svg">
<path d="M413.76 80.494C258.6 52.0243 112.93 39.2129 0 88.2562H77.4289C198.814 49.6518 303.877 72.3773 413.76 88.2562C557.058 108.964 735.943 92.3564 800 43.6536H726.225C677.579 77.8414 527.733 101.406 413.76 80.494Z" fill="#FFD200"/>
<mask id="mask0_37_16595" style="mask-type:alpha" maskUnits="userSpaceOnUse" x="44" y="12" width="710" height="73">
<path d="M44.473 16.3857C44.3395 15.8296 44.3395 15.3737 44.473 15.0178C44.6064 14.6619 44.9067 14.3839 45.3738 14.1837C45.8631 13.9613 46.5526 13.8167 47.4423 13.75C48.3542 13.661 49.5108 13.6165 50.912 13.6165C52.3133 13.6165 53.4254 13.661 54.2483 13.75C55.0713 13.8167 55.7052 13.9502 56.15 14.1504C56.6171 14.3505 56.9173 14.6286 57.0508 14.9844C57.2065 15.3403 57.2955 15.8074 57.3177 16.3857L59.4196 60.4248H60.4205L66.9262 16.3857C66.993 15.8296 67.0931 15.3737 67.2265 15.0178C67.36 14.6397 67.6046 14.3505 67.9605 14.1504C68.3386 13.9502 68.8613 13.8167 69.5286 13.75C70.2181 13.661 71.1522 13.6165 72.331 13.6165C73.5766 13.6165 74.5552 13.661 75.267 13.75C76.001 13.8167 76.557 13.9502 76.9351 14.1504C77.3133 14.3505 77.569 14.6397 77.7025 15.0178C77.8582 15.3737 77.9805 15.8296 78.0695 16.3857L84.6086 60.4248H85.6095L87.678 16.3857C87.7003 15.8296 87.7781 15.3737 87.9116 15.0178C88.0673 14.6397 88.3564 14.3505 88.779 14.1504C89.2016 13.9502 89.8021 13.8167 90.5806 13.75C91.3813 13.661 92.4489 13.6165 93.7834 13.6165C95.0957 13.6165 96.1633 13.661 96.9863 13.75C97.8315 13.8167 98.4765 13.9502 98.9213 14.1504C99.3662 14.3505 99.6553 14.6397 99.7888 15.0178C99.9222 15.3737 99.9445 15.8296 99.8555 16.3857L91.0143 67.7313C90.9031 68.2206 90.7585 68.621 90.5806 68.9324C90.4027 69.2215 90.1246 69.444 89.7465 69.5996C89.3684 69.7553 88.868 69.8665 88.2452 69.9333C87.6224 69.9778 86.8217 70 85.8431 70C84.5308 70 83.4632 69.9778 82.6402 69.9333C81.8173 69.8888 81.15 69.7887 80.6384 69.633C80.1491 69.4551 79.7821 69.2215 79.5375 68.9324C79.315 68.6432 79.1371 68.2429 79.0036 67.7313L72.6647 30.2313H71.9641L65.6584 67.7313C65.5472 68.2429 65.3804 68.6432 65.158 68.9324C64.9356 69.2215 64.5797 69.4551 64.0904 69.633C63.6233 69.7887 62.9894 69.8888 62.1887 69.9333C61.4102 69.9778 60.3982 70 59.1527 70C58.0406 70 57.1286 69.9778 56.4169 69.9333C55.7274 69.8665 55.1713 69.7553 54.7488 69.5996C54.3262 69.444 54.0148 69.2215 53.8146 68.9324C53.6144 68.621 53.4476 68.2206 53.3141 67.7313L44.473 16.3857ZM105.26 39.6397C105.194 37.8603 105.549 36.3367 106.328 35.069C107.129 33.7789 108.196 32.7224 109.531 31.8995C110.888 31.0765 112.444 30.476 114.202 30.0979C115.959 29.6975 117.76 29.4973 119.606 29.4973C121.452 29.4973 123.254 29.6975 125.011 30.0979C126.768 30.476 128.314 31.0765 129.649 31.8995C131.005 32.7224 132.073 33.7789 132.852 35.069C133.652 36.3367 134.019 37.8603 133.952 39.6397L133.185 60.7585C133.118 62.5823 132.696 64.117 131.917 65.3625C131.139 66.5859 130.127 67.5756 128.881 68.3319C127.636 69.0658 126.212 69.5996 124.611 69.9333C123.009 70.2447 121.352 70.4004 119.64 70.4004C117.905 70.4004 116.237 70.2447 114.635 69.9333C113.034 69.5996 111.599 69.0658 110.331 68.3319C109.086 67.5756 108.074 66.5859 107.295 65.3625C106.517 64.1392 106.094 62.6157 106.028 60.7918L105.26 39.6397ZM115.169 61.0587C115.147 61.9039 115.214 62.6157 115.369 63.194C115.547 63.7722 115.814 64.2393 116.17 64.5952C116.548 64.9511 117.015 65.2069 117.571 65.3625C118.15 65.5182 118.828 65.5961 119.606 65.5961C121.163 65.5961 122.298 65.2625 123.009 64.5952C123.743 63.9279 124.088 62.738 124.044 61.0254L123.376 39.0725C123.354 38.1383 123.243 37.3821 123.043 36.8038C122.865 36.2255 122.609 35.7807 122.275 35.4693C121.942 35.1579 121.553 34.9577 121.108 34.8688C120.663 34.7576 120.162 34.702 119.606 34.702C119.05 34.702 118.55 34.7576 118.105 34.8688C117.66 34.9577 117.271 35.1579 116.937 35.4693C116.604 35.7807 116.337 36.2255 116.137 36.8038C115.959 37.3821 115.859 38.1383 115.836 39.0725L115.169 61.0587ZM141.693 32.3332C141.693 31.8661 141.737 31.4769 141.826 31.1655C141.937 30.8319 142.16 30.5761 142.493 30.3981C142.849 30.2202 143.361 30.0979 144.028 30.0311C144.718 29.9422 145.63 29.8977 146.764 29.8977C147.898 29.8977 148.799 29.9422 149.466 30.0311C150.134 30.0979 150.645 30.2202 151.001 30.3981C151.357 30.5761 151.579 30.8319 151.668 31.1655C151.779 31.4769 151.835 31.8661 151.835 32.3332V34.3016C152.458 33.6121 153.092 32.9782 153.737 32.3999C154.404 31.7994 155.093 31.2878 155.805 30.8652C156.539 30.4426 157.307 30.109 158.107 29.8643C158.93 29.6197 159.809 29.4973 160.743 29.4973C161.811 29.4973 162.8 29.653 163.712 29.9644C164.646 30.2758 165.436 30.7762 166.081 31.4657C166.748 32.1553 167.26 33.0561 167.616 34.1682C167.972 35.258 168.127 36.5925 168.083 38.1717L167.849 45.8452C167.849 46.2678 167.783 46.6014 167.649 46.8461C167.538 47.0907 167.315 47.2798 166.982 47.4133C166.648 47.5467 166.17 47.6357 165.547 47.6802C164.947 47.7246 164.146 47.7469 163.145 47.7469C162.144 47.7469 161.343 47.7246 160.743 47.6802C160.142 47.6357 159.675 47.5467 159.342 47.4133C159.03 47.2798 158.819 47.0907 158.708 46.8461C158.619 46.6014 158.563 46.2678 158.541 45.8452L158.408 41.2745C158.385 40.407 158.307 39.6842 158.174 39.1059C158.041 38.5276 157.852 38.0716 157.607 37.738C157.384 37.4044 157.118 37.1708 156.806 37.0374C156.495 36.9039 156.139 36.8372 155.739 36.8372C155.093 36.8372 154.471 37.0819 153.87 37.5712C153.292 38.0605 152.769 38.6054 152.302 39.206L151.468 68.0983C151.468 68.5209 151.412 68.8545 151.301 69.0992C151.19 69.3439 150.979 69.5329 150.667 69.6664C150.356 69.7998 149.911 69.8888 149.333 69.9333C148.777 69.9778 148.032 70 147.098 70C146.163 70 145.407 69.9778 144.829 69.9333C144.273 69.8888 143.839 69.7998 143.528 69.6664C143.239 69.5329 143.038 69.3439 142.927 69.0992C142.816 68.8545 142.76 68.5209 142.76 68.0983L141.693 32.3332ZM173.454 40.5405C173.41 38.9391 173.621 37.46 174.088 36.1032C174.555 34.7464 175.234 33.5787 176.123 32.6001C177.035 31.6214 178.125 30.8652 179.393 30.3314C180.661 29.7754 182.073 29.4973 183.63 29.4973C184.564 29.4973 185.432 29.6197 186.232 29.8643C187.033 30.109 187.767 30.4204 188.434 30.7985C189.102 31.1544 189.691 31.5547 190.202 31.9996C190.736 32.4444 191.192 32.867 191.57 33.2673L191.203 14.9177C191.203 14.4506 191.248 14.0614 191.337 13.75C191.448 13.4164 191.693 13.1606 192.071 12.9827C192.449 12.8047 192.994 12.6824 193.706 12.6157C194.44 12.5267 195.407 12.4822 196.608 12.4822C197.809 12.4822 198.766 12.5267 199.477 12.6157C200.211 12.6824 200.767 12.8047 201.146 12.9827C201.524 13.1606 201.757 13.4164 201.846 13.75C201.957 14.0614 202.013 14.4506 202.013 14.9177L200.979 68.0983C200.979 68.5209 200.923 68.8545 200.812 69.0992C200.701 69.3439 200.489 69.5329 200.178 69.6664C199.867 69.7998 199.422 69.8888 198.843 69.9333C198.287 69.9778 197.542 70 196.608 70C195.741 70 195.04 69.9778 194.506 69.9333C193.995 69.8888 193.594 69.7998 193.305 69.6664C193.038 69.5329 192.849 69.3439 192.738 69.0992C192.649 68.8545 192.605 68.5209 192.605 68.0983V66.8305C192.138 67.2531 191.593 67.6757 190.97 68.0983C190.369 68.5209 189.691 68.9101 188.935 69.266C188.178 69.5996 187.356 69.8665 186.466 70.0667C185.576 70.2891 184.62 70.4004 183.597 70.4004C182.151 70.4004 180.85 70.2002 179.693 69.7998C178.559 69.3995 177.58 68.7656 176.757 67.8981C175.956 67.0085 175.323 65.863 174.856 64.4617C174.388 63.0383 174.122 61.3256 174.055 59.3238L173.454 40.5405ZM183.263 59.3238C183.218 60.9698 183.597 62.2375 184.397 63.1272C185.22 63.9947 186.343 64.4284 187.767 64.4284C188.701 64.4284 189.535 64.2616 190.269 63.9279C191.025 63.5721 191.659 63.1717 192.171 62.7269L191.67 38.105C191.137 37.6601 190.503 37.2709 189.769 36.9373C189.035 36.5814 188.29 36.4035 187.533 36.4035C187.044 36.4035 186.577 36.4813 186.132 36.637C185.687 36.7705 185.287 37.004 184.931 37.3376C184.598 37.649 184.319 38.0716 184.097 38.6054C183.897 39.1392 183.786 39.7843 183.763 40.5405L183.263 59.3238ZM210.053 24.4595C210.009 22.7914 210.287 21.2678 210.888 19.8888C211.488 18.5098 212.433 17.331 213.723 16.3523C215.036 15.3737 216.715 14.6174 218.761 14.0836C220.83 13.5276 223.31 13.2496 226.201 13.2496C229.07 13.2496 231.528 13.5276 233.574 14.0836C235.643 14.6174 237.333 15.3737 238.646 16.3523C239.958 17.331 240.914 18.5098 241.515 19.8888C242.115 21.2678 242.393 22.7914 242.349 24.4595L241.948 40.6739C241.926 41.3412 241.826 41.8861 241.648 42.3087C241.47 42.7091 241.17 43.0205 240.747 43.2429C240.325 43.4431 239.758 43.5765 239.046 43.6432C238.356 43.71 237.5 43.7433 236.477 43.7433C235.432 43.7433 234.564 43.71 233.875 43.6432C233.185 43.5765 232.629 43.4431 232.206 43.2429C231.806 43.0205 231.517 42.7091 231.339 42.3087C231.161 41.8861 231.061 41.3412 231.039 40.6739L230.605 23.4253C230.583 22.4466 230.472 21.6682 230.271 21.0899C230.071 20.5116 229.782 20.0667 229.404 19.7553C229.048 19.444 228.603 19.2438 228.069 19.1548C227.536 19.0436 226.913 18.988 226.201 18.988C225.489 18.988 224.867 19.0436 224.333 19.1548C223.799 19.2438 223.343 19.444 222.965 19.7553C222.609 20.0667 222.331 20.5116 222.131 21.0899C221.931 21.6682 221.819 22.4466 221.797 23.4253L220.83 60.1246C220.807 61.0587 220.885 61.8372 221.063 62.46C221.263 63.0827 221.575 63.5832 221.997 63.9613C222.442 64.3172 223.009 64.573 223.699 64.7286C224.388 64.8843 225.222 64.9622 226.201 64.9622C227.18 64.9622 228.014 64.8843 228.703 64.7286C229.415 64.573 229.982 64.3172 230.405 63.9613C230.85 63.5832 231.161 63.0827 231.339 62.46C231.517 61.8372 231.595 61.0587 231.573 60.1246L231.439 56.1544C231.417 55.4871 231.484 54.9533 231.639 54.5529C231.817 54.1303 232.106 53.819 232.507 53.6188C232.929 53.3964 233.485 53.2518 234.175 53.1851C234.864 53.1183 235.721 53.085 236.744 53.085C237.745 53.085 238.557 53.1183 239.179 53.1851C239.824 53.2518 240.314 53.3964 240.647 53.6188C241.003 53.819 241.237 54.1303 241.348 54.5529C241.459 54.9533 241.504 55.4871 241.481 56.1544L241.381 59.891C241.337 61.3367 241.025 62.7046 240.447 63.9947C239.869 65.2625 238.968 66.3746 237.745 67.331C236.544 68.2874 234.987 69.0436 233.074 69.5996C231.183 70.1335 228.892 70.4004 226.201 70.4004C223.51 70.4004 221.208 70.1223 219.295 69.5663C217.382 69.0102 215.814 68.254 214.591 67.2976C213.39 66.3412 212.5 65.218 211.922 63.9279C211.343 62.6379 211.032 61.27 210.988 59.8243L210.053 24.4595ZM249.655 60.2914C249.633 59.0458 249.9 57.956 250.456 57.0218C251.012 56.0654 251.724 55.2313 252.591 54.5196C253.481 53.8078 254.482 53.2073 255.594 52.718C256.706 52.2064 257.807 51.7727 258.897 51.4168C260.298 50.9497 261.777 50.5494 263.334 50.2157C264.913 49.8821 266.448 49.593 267.938 49.3483L267.638 38.3052C267.594 37.0819 267.282 36.1811 266.704 35.6028C266.148 35.0022 265.258 34.702 264.035 34.702C263.456 34.702 262.934 34.7464 262.467 34.8354C262 34.9244 261.588 35.1023 261.232 35.3692C260.899 35.6361 260.632 36.0031 260.432 36.4702C260.231 36.9373 260.12 37.5378 260.098 38.2718L259.864 45.8452C259.864 46.2678 259.798 46.6014 259.664 46.8461C259.553 47.0907 259.319 47.2798 258.964 47.4133C258.608 47.5467 258.096 47.6357 257.429 47.6802C256.784 47.7246 255.916 47.7469 254.827 47.7469C253.826 47.7469 253.014 47.7246 252.391 47.6802C251.768 47.6357 251.29 47.5467 250.956 47.4133C250.623 47.2798 250.4 47.0907 250.289 46.8461C250.178 46.6014 250.111 46.2678 250.089 45.8452L249.822 38.7389C249.778 37.5601 249.978 36.5147 250.423 35.6028C250.868 34.6686 251.468 33.8679 252.224 33.2006C253.003 32.5111 253.881 31.9328 254.86 31.4657C255.861 30.9987 256.895 30.6206 257.963 30.3314C259.053 30.02 260.131 29.8087 261.199 29.6975C262.267 29.5641 263.245 29.4973 264.135 29.4973C266.048 29.4973 267.86 29.7198 269.573 30.1646C271.308 30.5872 272.82 31.21 274.11 32.0329C275.4 32.8559 276.412 33.8679 277.146 35.069C277.903 36.2478 278.259 37.6045 278.214 39.1392L277.18 68.0983C277.158 68.5209 277.091 68.8545 276.98 69.0992C276.891 69.3439 276.69 69.5329 276.379 69.6664C276.068 69.7998 275.623 69.8888 275.045 69.9333C274.489 69.9778 273.743 70 272.809 70C271.942 70 271.241 69.9778 270.707 69.9333C270.196 69.8888 269.795 69.7998 269.506 69.6664C269.239 69.5329 269.05 69.3439 268.939 69.0992C268.85 68.8545 268.806 68.5209 268.806 68.0983L268.772 66.9306C268.172 67.3754 267.516 67.8092 266.804 68.2318C266.092 68.6321 265.336 68.9991 264.535 69.3327C263.735 69.6441 262.878 69.8999 261.966 70.1001C261.077 70.3003 260.142 70.4004 259.164 70.4004C257.607 70.4004 256.239 70.1891 255.06 69.7665C253.881 69.3216 252.892 68.7322 252.091 67.9982C251.312 67.242 250.723 66.3634 250.323 65.3625C249.922 64.3394 249.711 63.2496 249.689 62.093L249.655 60.2914ZM258.797 61.0921C258.797 61.7593 258.897 62.3376 259.097 62.827C259.297 63.294 259.564 63.6833 259.898 63.9947C260.231 64.2838 260.621 64.5062 261.065 64.6619C261.533 64.7954 262.033 64.8621 262.567 64.8621C263.857 64.8621 264.969 64.6508 265.903 64.2282C266.837 63.8056 267.638 63.3163 268.305 62.7602L268.072 54.1859C266.871 54.3861 265.814 54.6197 264.902 54.8866C263.99 55.1312 263.178 55.4093 262.467 55.7206C261.355 56.2322 260.465 56.7994 259.798 57.4222C259.13 58.0227 258.797 58.8123 258.797 59.7909V61.0921ZM286.288 32.3332C286.288 31.8661 286.332 31.4769 286.421 31.1655C286.533 30.8319 286.755 30.5761 287.089 30.3981C287.444 30.2202 287.956 30.0979 288.623 30.0311C289.313 29.9422 290.225 29.8977 291.359 29.8977C292.493 29.8977 293.394 29.9422 294.061 30.0311C294.751 30.0979 295.263 30.2202 295.596 30.3981C295.952 30.5761 296.174 30.8319 296.263 31.1655C296.375 31.4769 296.43 31.8661 296.43 32.3332L296.364 34.3683C296.986 33.6566 297.62 33.0116 298.265 32.4333C298.932 31.8327 299.633 31.3212 300.367 30.8986C301.123 30.4537 301.924 30.109 302.769 29.8643C303.614 29.6197 304.537 29.4973 305.538 29.4973C307.429 29.4973 309.108 29.9644 310.576 30.8986C312.044 31.8327 313.156 33.1673 313.912 34.9021C314.58 34.1237 315.247 33.4119 315.914 32.7669C316.604 32.0996 317.338 31.5214 318.116 31.032C318.895 30.5427 319.729 30.1646 320.618 29.8977C321.508 29.6308 322.487 29.4973 323.554 29.4973C324.911 29.4973 326.168 29.742 327.324 30.2313C328.503 30.7206 329.504 31.4324 330.327 32.3665C331.172 33.3007 331.817 34.4351 332.262 35.7696C332.729 37.1041 332.94 38.6165 332.896 40.3069L332.095 68.0983C332.095 68.5209 332.04 68.8545 331.928 69.0992C331.817 69.3439 331.606 69.5329 331.295 69.6664C330.983 69.7998 330.538 69.8888 329.96 69.9333C329.404 69.9778 328.659 70 327.725 70C326.791 70 326.034 69.9778 325.456 69.9333C324.9 69.8888 324.466 69.7998 324.155 69.6664C323.866 69.5329 323.666 69.3439 323.554 69.0992C323.443 68.8545 323.388 68.5209 323.388 68.0983L322.62 41.2745C322.598 40.407 322.487 39.6842 322.287 39.1059C322.086 38.5276 321.819 38.0716 321.486 37.738C321.152 37.4044 320.752 37.1708 320.285 37.0374C319.84 36.9039 319.351 36.8372 318.817 36.8372C317.972 36.8372 317.215 37.0819 316.548 37.5712C315.903 38.0383 315.347 38.6054 314.88 39.2727V40.3069L314.079 68.0983C314.079 68.5209 314.024 68.8545 313.912 69.0992C313.801 69.3439 313.59 69.5329 313.279 69.6664C312.967 69.7998 312.522 69.8888 311.944 69.9333C311.388 69.9778 310.643 70 309.709 70C308.775 70 308.018 69.9778 307.44 69.9333C306.884 69.8888 306.45 69.7998 306.139 69.6664C305.85 69.5329 305.65 69.3439 305.538 69.0992C305.427 68.8545 305.372 68.5209 305.372 68.0983L304.604 41.2745C304.582 40.407 304.471 39.6842 304.271 39.1059C304.07 38.5276 303.803 38.0716 303.47 37.738C303.136 37.4044 302.736 37.1708 302.269 37.0374C301.824 36.9039 301.335 36.8372 300.801 36.8372C299.956 36.8372 299.21 37.0707 298.565 37.5378C297.92 38.0049 297.364 38.5609 296.897 39.206L296.063 68.0983C296.063 68.5209 296.008 68.8545 295.896 69.0992C295.785 69.3439 295.574 69.5329 295.263 69.6664C294.951 69.7998 294.506 69.8888 293.928 69.9333C293.372 69.9778 292.627 70 291.693 70C290.759 70 290.002 69.9778 289.424 69.9333C288.868 69.8888 288.434 69.7998 288.123 69.6664C287.834 69.5329 287.634 69.3439 287.522 69.0992C287.411 68.8545 287.355 68.5209 287.355 68.0983L286.288 32.3332ZM340.336 32.3332C340.314 31.8661 340.347 31.4769 340.436 31.1655C340.547 30.8319 340.781 30.5761 341.137 30.3981C341.493 30.2202 342.004 30.0979 342.671 30.0311C343.361 29.9422 344.273 29.8977 345.407 29.8977C346.541 29.8977 347.442 29.9422 348.11 30.0311C348.799 30.0979 349.322 30.2202 349.678 30.3981C350.033 30.5761 350.256 30.8319 350.345 31.1655C350.456 31.4769 350.501 31.8661 350.478 32.3332L350.445 33.5009C350.979 32.9671 351.546 32.4666 352.146 31.9996C352.747 31.5102 353.392 31.0876 354.081 30.7318C354.771 30.3536 355.494 30.0534 356.25 29.831C357.006 29.6085 357.818 29.4973 358.686 29.4973C360.243 29.4973 361.655 29.7754 362.923 30.3314C364.19 30.8652 365.269 31.6214 366.159 32.6001C367.071 33.5787 367.76 34.7464 368.227 36.1032C368.694 37.46 368.906 38.9391 368.861 40.5405L368.261 59.3238C368.194 61.3256 367.927 63.0383 367.46 64.4617C366.993 65.863 366.348 67.0085 365.525 67.8981C364.724 68.7656 363.746 69.3995 362.589 69.7998C361.432 70.2002 360.142 70.4004 358.719 70.4004C356.873 70.4004 355.26 70.1001 353.881 69.4996C352.502 68.8768 351.335 68.1873 350.378 67.431L350.078 82.1108C350.078 82.5334 350.022 82.867 349.911 83.1117C349.8 83.3563 349.589 83.5454 349.277 83.6788C348.966 83.8123 348.532 83.9012 347.976 83.9457C347.42 83.9902 346.675 84.0125 345.741 84.0125C344.807 84.0125 344.05 83.9902 343.472 83.9457C342.916 83.9012 342.482 83.8123 342.171 83.6788C341.882 83.5454 341.682 83.3563 341.57 83.1117C341.481 82.867 341.437 82.5334 341.437 82.1108L340.336 32.3332ZM350.478 63.0271C350.99 63.4052 351.579 63.7389 352.247 64.028C352.936 64.2949 353.703 64.4284 354.549 64.4284C355.972 64.4284 357.084 63.9947 357.885 63.1272C358.708 62.2375 359.097 60.9698 359.053 59.3238L358.552 40.5405C358.53 39.7843 358.408 39.1392 358.185 38.6054C357.985 38.0716 357.707 37.649 357.351 37.3376C357.017 37.004 356.628 36.7705 356.183 36.637C355.739 36.4813 355.271 36.4035 354.782 36.4035C354.115 36.4035 353.448 36.5369 352.78 36.8038C352.135 37.0707 351.557 37.3932 351.045 37.7714L350.478 63.0271ZM406.895 46.012L413.001 16.6192C413.156 15.9742 413.334 15.4626 413.534 15.0845C413.757 14.6842 414.079 14.3728 414.502 14.1504C414.947 13.9279 415.525 13.7834 416.237 13.7166C416.971 13.6499 417.927 13.6165 419.106 13.6165C421.041 13.6165 422.476 13.7389 423.41 13.9835C424.366 14.206 424.844 14.7286 424.844 15.5516C424.844 15.8407 424.833 16.0965 424.811 16.319C424.789 16.5414 424.744 16.7638 424.678 16.9862C424.633 17.2086 424.577 17.4422 424.511 17.6868C424.444 17.9093 424.366 18.165 424.277 18.4542L416.103 46.012L423.677 65.2625C423.988 66.0632 424.222 66.7193 424.377 67.2309C424.555 67.7202 424.644 68.1428 424.644 68.4987C424.644 68.7656 424.6 68.9991 424.511 69.1993C424.422 69.3772 424.222 69.5329 423.91 69.6664C423.621 69.7776 423.198 69.8665 422.642 69.9333C422.086 69.9778 421.352 70 420.44 70C419.662 70 419.028 69.9666 418.539 69.8999C418.072 69.8109 417.682 69.6664 417.371 69.4662C417.082 69.266 416.826 68.9991 416.604 68.6655C416.404 68.3096 416.192 67.8648 415.97 67.331L406.895 46.012ZM393.45 16.3857C393.428 15.8074 393.483 15.3403 393.617 14.9844C393.75 14.6286 394.028 14.3505 394.451 14.1504C394.896 13.9502 395.518 13.8167 396.319 13.75C397.12 13.661 398.187 13.6165 399.522 13.6165C400.834 13.6165 401.891 13.661 402.691 13.75C403.492 13.8167 404.104 13.9502 404.526 14.1504C404.971 14.3505 405.26 14.6286 405.394 14.9844C405.549 15.3403 405.616 15.8074 405.594 16.3857L404.126 67.7313C404.126 68.2429 404.07 68.6544 403.959 68.9657C403.87 69.2549 403.659 69.4773 403.325 69.633C403.014 69.7887 402.558 69.8888 401.957 69.9333C401.357 69.9778 400.545 70 399.522 70C398.499 70 397.676 69.9778 397.053 69.9333C396.452 69.8888 395.997 69.7887 395.685 69.633C395.374 69.4773 395.162 69.2549 395.051 68.9657C394.962 68.6544 394.907 68.2429 394.884 67.7313L393.45 16.3857ZM429.615 60.2914C429.593 59.0458 429.86 57.956 430.416 57.0218C430.972 56.0654 431.684 55.2313 432.551 54.5196C433.441 53.8078 434.442 53.2073 435.554 52.718C436.666 52.2064 437.767 51.7727 438.857 51.4168C440.258 50.9497 441.737 50.5494 443.294 50.2157C444.873 49.8821 446.408 49.593 447.898 49.3483L447.598 38.3052C447.553 37.0819 447.242 36.1811 446.664 35.6028C446.108 35.0022 445.218 34.702 443.995 34.702C443.416 34.702 442.894 34.7464 442.427 34.8354C441.96 34.9244 441.548 35.1023 441.192 35.3692C440.859 35.6361 440.592 36.0031 440.392 36.4702C440.191 36.9373 440.08 37.5378 440.058 38.2718L439.824 45.8452C439.824 46.2678 439.758 46.6014 439.624 46.8461C439.513 47.0907 439.279 47.2798 438.924 47.4133C438.568 47.5467 438.056 47.6357 437.389 47.6802C436.744 47.7246 435.876 47.7469 434.787 47.7469C433.786 47.7469 432.974 47.7246 432.351 47.6802C431.728 47.6357 431.25 47.5467 430.916 47.4133C430.583 47.2798 430.36 47.0907 430.249 46.8461C430.138 46.6014 430.071 46.2678 430.049 45.8452L429.782 38.7389C429.738 37.5601 429.938 36.5147 430.383 35.6028C430.827 34.6686 431.428 33.8679 432.184 33.2006C432.963 32.5111 433.841 31.9328 434.82 31.4657C435.821 30.9987 436.855 30.6206 437.923 30.3314C439.013 30.02 440.091 29.8087 441.159 29.6975C442.227 29.5641 443.205 29.4973 444.095 29.4973C446.008 29.4973 447.82 29.7198 449.533 30.1646C451.268 30.5872 452.78 31.21 454.07 32.0329C455.36 32.8559 456.372 33.8679 457.106 35.069C457.863 36.2478 458.218 37.6045 458.174 39.1392L457.14 68.0983C457.118 68.5209 457.051 68.8545 456.94 69.0992C456.851 69.3439 456.65 69.5329 456.339 69.6664C456.028 69.7998 455.583 69.8888 455.005 69.9333C454.448 69.9778 453.703 70 452.769 70C451.902 70 451.201 69.9778 450.667 69.9333C450.156 69.8888 449.755 69.7998 449.466 69.6664C449.199 69.5329 449.01 69.3439 448.899 69.0992C448.81 68.8545 448.766 68.5209 448.766 68.0983L448.732 66.9306C448.132 67.3754 447.476 67.8092 446.764 68.2318C446.052 68.6321 445.296 68.9991 444.495 69.3327C443.694 69.6441 442.838 69.8999 441.926 70.1001C441.037 70.3003 440.102 70.4004 439.124 70.4004C437.567 70.4004 436.199 70.1891 435.02 69.7665C433.841 69.3216 432.852 68.7322 432.051 67.9982C431.272 67.242 430.683 66.3634 430.283 65.3625C429.882 64.3394 429.671 63.2496 429.649 62.093L429.615 60.2914ZM438.757 61.0921C438.757 61.7593 438.857 62.3376 439.057 62.827C439.257 63.294 439.524 63.6833 439.858 63.9947C440.191 64.2838 440.581 64.5062 441.025 64.6619C441.493 64.7954 441.993 64.8621 442.527 64.8621C443.817 64.8621 444.929 64.6508 445.863 64.2282C446.797 63.8056 447.598 63.3163 448.265 62.7602L448.032 54.1859C446.831 54.3861 445.774 54.6197 444.862 54.8866C443.95 55.1312 443.138 55.4093 442.427 55.7206C441.315 56.2322 440.425 56.7994 439.758 57.4222C439.09 58.0227 438.757 58.8123 438.757 59.7909V61.0921ZM466.248 32.3332C466.248 31.8661 466.292 31.4769 466.381 31.1655C466.493 30.8319 466.715 30.5761 467.049 30.3981C467.404 30.2202 467.916 30.0979 468.583 30.0311C469.273 29.9422 470.185 29.8977 471.319 29.8977C472.453 29.8977 473.354 29.9422 474.021 30.0311C474.711 30.0979 475.223 30.2202 475.556 30.3981C475.912 30.5761 476.134 30.8319 476.223 31.1655C476.335 31.4769 476.39 31.8661 476.39 32.3332L476.323 34.3683C476.946 33.6566 477.58 33.0116 478.225 32.4333C478.892 31.8327 479.593 31.3212 480.327 30.8986C481.083 30.4537 481.884 30.109 482.729 29.8643C483.574 29.6197 484.497 29.4973 485.498 29.4973C486.855 29.4973 488.112 29.742 489.268 30.2313C490.447 30.7206 491.448 31.4324 492.271 32.3665C493.116 33.3007 493.761 34.4351 494.206 35.7696C494.673 37.1041 494.884 38.6165 494.84 40.3069L494.039 68.0983C494.039 68.5209 493.984 68.8545 493.872 69.0992C493.761 69.3439 493.55 69.5329 493.239 69.6664C492.927 69.7998 492.482 69.8888 491.904 69.9333C491.348 69.9778 490.603 70 489.669 70C488.735 70 487.978 69.9778 487.4 69.9333C486.844 69.8888 486.41 69.7998 486.099 69.6664C485.81 69.5329 485.61 69.3439 485.498 69.0992C485.387 68.8545 485.331 68.5209 485.331 68.0983L484.564 41.2745C484.542 40.407 484.431 39.6842 484.231 39.1059C484.03 38.5276 483.763 38.0716 483.43 37.738C483.096 37.4044 482.696 37.1708 482.229 37.0374C481.784 36.9039 481.295 36.8372 480.761 36.8372C479.916 36.8372 479.17 37.0707 478.525 37.5378C477.88 38.0049 477.324 38.5609 476.857 39.206L476.023 68.0983C476.023 68.5209 475.968 68.8545 475.856 69.0992C475.745 69.3439 475.534 69.5329 475.223 69.6664C474.911 69.7998 474.466 69.8888 473.888 69.9333C473.332 69.9778 472.587 70 471.653 70C470.718 70 469.962 69.9778 469.384 69.9333C468.828 69.8888 468.394 69.7998 468.083 69.6664C467.794 69.5329 467.593 69.3439 467.482 69.0992C467.371 68.8545 467.315 68.5209 467.315 68.0983L466.248 32.3332ZM502.447 60.2914C502.447 59.8688 502.502 59.524 502.614 59.2571C502.725 58.9902 502.936 58.7789 503.247 58.6232C503.581 58.4453 504.048 58.323 504.649 58.2562C505.249 58.1895 506.039 58.1561 507.017 58.1561C508.018 58.1561 508.819 58.1895 509.42 58.2562C510.02 58.323 510.476 58.4453 510.787 58.6232C511.121 58.7789 511.343 59.0013 511.455 59.2905C511.566 59.5574 511.622 59.9021 511.622 60.3247V61.9595C511.622 63.3163 512.011 64.2616 512.789 64.7954C513.59 65.3292 514.713 65.5961 516.159 65.5961C517.605 65.5961 518.605 65.2958 519.162 64.6953C519.74 64.0725 520.029 63.0494 520.029 61.6259V59.9911C520.029 59.4351 519.951 58.9569 519.795 58.5565C519.662 58.1561 519.451 57.8114 519.162 57.5222C518.872 57.2109 518.494 56.944 518.027 56.7215C517.582 56.4991 517.06 56.2878 516.459 56.0876L506.584 52.6179C505.005 52.0618 503.826 51.1499 503.047 49.8821C502.291 48.6143 501.88 47.0574 501.813 45.2113L501.613 39.3728C501.546 37.5934 501.913 36.081 502.714 34.8354C503.514 33.5899 504.593 32.5778 505.95 31.7994C507.307 30.9987 508.864 30.4204 510.621 30.0645C512.378 29.6864 514.179 29.4973 516.025 29.4973C517.827 29.4973 519.584 29.653 521.297 29.9644C523.009 30.2758 524.522 30.7985 525.834 31.5325C527.169 32.2442 528.214 33.2006 528.97 34.4017C529.749 35.5805 530.105 37.0596 530.038 38.839L529.771 45.8452C529.749 46.2678 529.671 46.6014 529.537 46.8461C529.426 47.0907 529.204 47.2798 528.87 47.4133C528.537 47.5467 528.058 47.6357 527.436 47.6802C526.835 47.7246 526.034 47.7469 525.033 47.7469C523.944 47.7469 523.065 47.7246 522.398 47.6802C521.753 47.6357 521.252 47.5467 520.896 47.4133C520.541 47.2798 520.296 47.0907 520.162 46.8461C520.051 46.6014 519.996 46.2678 519.996 45.8452L519.762 38.2718C519.74 37.5378 519.629 36.9373 519.428 36.4702C519.251 36.0031 518.995 35.6361 518.661 35.3692C518.35 35.1023 517.972 34.9244 517.527 34.8354C517.082 34.7464 516.581 34.702 516.025 34.702C515.469 34.702 514.958 34.7576 514.491 34.8688C514.046 34.9577 513.657 35.1357 513.323 35.4026C512.989 35.6695 512.722 36.0365 512.522 36.5036C512.344 36.9484 512.244 37.5267 512.222 38.2384L511.989 45.4782C511.944 46.5681 512.166 47.4689 512.656 48.1806C513.167 48.8701 514.001 49.4039 515.158 49.782L523.565 52.7847C524.7 53.1851 525.634 53.6188 526.368 54.0859C527.102 54.5529 527.68 55.0979 528.103 55.7206C528.548 56.3434 528.848 57.0552 529.004 57.8559C529.159 58.6343 529.215 59.5574 529.17 60.625L529.104 62.1597C529.037 63.6944 528.637 64.9844 527.903 66.0298C527.191 67.0752 526.234 67.9315 525.033 68.5988C523.855 69.2438 522.498 69.7109 520.963 70C519.451 70.2669 517.86 70.4004 516.192 70.4004C514.569 70.4004 512.934 70.2669 511.288 70C509.664 69.7553 508.196 69.3105 506.884 68.6655C505.572 67.9982 504.504 67.1085 503.681 65.9964C502.858 64.8621 502.447 63.4164 502.447 61.6593V60.2914ZM537.044 60.2914C537.022 59.0458 537.289 57.956 537.845 57.0218C538.401 56.0654 539.113 55.2313 539.98 54.5196C540.87 53.8078 541.871 53.2073 542.983 52.718C544.095 52.2064 545.196 51.7727 546.286 51.4168C547.687 50.9497 549.166 50.5494 550.723 50.2157C552.302 49.8821 553.837 49.593 555.327 49.3483L555.027 38.3052C554.982 37.0819 554.671 36.1811 554.093 35.6028C553.537 35.0022 552.647 34.702 551.424 34.702C550.845 34.702 550.323 34.7464 549.855 34.8354C549.388 34.9244 548.977 35.1023 548.621 35.3692C548.287 35.6361 548.021 36.0031 547.82 36.4702C547.62 36.9373 547.509 37.5378 547.487 38.2718L547.253 45.8452C547.253 46.2678 547.186 46.6014 547.053 46.8461C546.942 47.0907 546.708 47.2798 546.352 47.4133C545.996 47.5467 545.485 47.6357 544.818 47.6802C544.173 47.7246 543.305 47.7469 542.215 47.7469C541.214 47.7469 540.403 47.7246 539.78 47.6802C539.157 47.6357 538.679 47.5467 538.345 47.4133C538.012 47.2798 537.789 47.0907 537.678 46.8461C537.567 46.6014 537.5 46.2678 537.478 45.8452L537.211 38.7389C537.166 37.5601 537.367 36.5147 537.811 35.6028C538.256 34.6686 538.857 33.8679 539.613 33.2006C540.392 32.5111 541.27 31.9328 542.249 31.4657C543.25 30.9987 544.284 30.6206 545.351 30.3314C546.441 30.02 547.52 29.8087 548.588 29.6975C549.655 29.5641 550.634 29.4973 551.524 29.4973C553.436 29.4973 555.249 29.7198 556.962 30.1646C558.697 30.5872 560.209 31.21 561.499 32.0329C562.789 32.8559 563.801 33.8679 564.535 35.069C565.291 36.2478 565.647 37.6045 565.603 39.1392L564.569 68.0983C564.546 68.5209 564.48 68.8545 564.368 69.0992C564.279 69.3439 564.079 69.5329 563.768 69.6664C563.456 69.7998 563.012 69.8888 562.433 69.9333C561.877 69.9778 561.132 70 560.198 70C559.331 70 558.63 69.9778 558.096 69.9333C557.585 69.8888 557.184 69.7998 556.895 69.6664C556.628 69.5329 556.439 69.3439 556.328 69.0992C556.239 68.8545 556.194 68.5209 556.194 68.0983L556.161 66.9306C555.561 67.3754 554.904 67.8092 554.193 68.2318C553.481 68.6321 552.725 68.9991 551.924 69.3327C551.123 69.6441 550.267 69.8999 549.355 70.1001C548.465 70.3003 547.531 70.4004 546.553 70.4004C544.996 70.4004 543.628 70.1891 542.449 69.7665C541.27 69.3216 540.28 68.7322 539.48 67.9982C538.701 67.242 538.112 66.3634 537.711 65.3625C537.311 64.3394 537.1 63.2496 537.077 62.093L537.044 60.2914ZM546.186 61.0921C546.186 61.7593 546.286 62.3376 546.486 62.827C546.686 63.294 546.953 63.6833 547.287 63.9947C547.62 64.2838 548.009 64.5062 548.454 64.6619C548.921 64.7954 549.422 64.8621 549.956 64.8621C551.246 64.8621 552.358 64.6508 553.292 64.2282C554.226 63.8056 555.027 63.3163 555.694 62.7602L555.46 54.1859C554.259 54.3861 553.203 54.6197 552.291 54.8866C551.379 55.1312 550.567 55.4093 549.855 55.7206C548.743 56.2322 547.854 56.7994 547.186 57.4222C546.519 58.0227 546.186 58.8123 546.186 59.7909V61.0921ZM579.282 24.6263C578.192 24.6263 577.313 24.6041 576.646 24.5596C576.001 24.5151 575.501 24.4262 575.145 24.2927C574.811 24.1593 574.577 23.9702 574.444 23.7255C574.333 23.4809 574.277 23.1472 574.277 22.7246L573.877 16.2189C573.877 15.7518 573.921 15.3625 574.01 15.0512C574.122 14.7175 574.366 14.4617 574.744 14.2838C575.122 14.1059 575.667 13.9835 576.379 13.9168C577.113 13.8278 578.081 13.7834 579.282 13.7834C580.483 13.7834 581.439 13.8278 582.151 13.9168C582.885 13.9835 583.441 14.1059 583.819 14.2838C584.197 14.4617 584.431 14.7175 584.52 15.0512C584.631 15.3625 584.686 15.7518 584.686 16.2189L584.319 22.7246C584.319 23.1472 584.253 23.4809 584.119 23.7255C584.008 23.9702 583.775 24.1593 583.419 24.2927C583.063 24.4262 582.551 24.5151 581.884 24.5596C581.239 24.6041 580.372 24.6263 579.282 24.6263ZM573.677 32.3332C573.677 31.8661 573.721 31.4769 573.81 31.1655C573.921 30.8319 574.166 30.5761 574.544 30.3981C574.922 30.2202 575.467 30.0979 576.179 30.0311C576.913 29.9422 577.88 29.8977 579.081 29.8977C580.283 29.8977 581.239 29.9422 581.951 30.0311C582.685 30.0979 583.241 30.2202 583.619 30.3981C583.997 30.5761 584.231 30.8319 584.319 31.1655C584.431 31.4769 584.486 31.8661 584.486 32.3332L583.452 68.0983C583.452 68.5209 583.396 68.8545 583.285 69.0992C583.174 69.3439 582.963 69.5329 582.651 69.6664C582.34 69.7998 581.895 69.8888 581.317 69.9333C580.761 69.9778 580.016 70 579.081 70C578.147 70 577.391 69.9778 576.813 69.9333C576.257 69.8888 575.823 69.7998 575.512 69.6664C575.223 69.5329 575.022 69.3439 574.911 69.0992C574.8 68.8545 574.744 68.5209 574.744 68.0983L573.677 32.3332ZM610.476 66.7638C610.476 65.9853 610.554 65.3625 610.71 64.8955C610.888 64.4061 611.166 63.9502 611.544 63.5276L626.891 42.8759C627.38 42.2754 627.803 41.7304 628.158 41.2411C628.514 40.7518 628.792 40.2402 628.993 39.7064C629.215 39.1726 629.371 38.5943 629.46 37.9715C629.549 37.3488 629.582 36.6036 629.56 35.7362L629.193 23.6588C629.17 22.7024 629.059 21.9351 628.859 21.3568C628.659 20.7562 628.37 20.3114 627.992 20.0222C627.636 19.7109 627.18 19.5107 626.624 19.4217C626.09 19.3105 625.467 19.2549 624.755 19.2549C624.044 19.2549 623.41 19.3105 622.854 19.4217C622.32 19.5107 621.864 19.7109 621.486 20.0222C621.13 20.3114 620.852 20.7562 620.652 21.3568C620.474 21.9351 620.374 22.7024 620.351 23.6588L619.951 37.8047C619.929 38.472 619.829 39.0169 619.651 39.4395C619.473 39.8399 619.184 40.1512 618.783 40.3737C618.383 40.5738 617.849 40.7073 617.182 40.774C616.515 40.8407 615.692 40.8741 614.713 40.8741C613.735 40.8741 612.923 40.8407 612.278 40.774C611.633 40.7073 611.121 40.5738 610.743 40.3737C610.365 40.1512 610.087 39.8399 609.909 39.4395C609.753 39.0169 609.664 38.472 609.642 37.8047L608.641 23.9257C608.597 22.2576 608.919 20.7674 609.609 19.4551C610.32 18.1206 611.366 16.9973 612.745 16.0854C614.124 15.1735 615.814 14.4729 617.816 13.9835C619.84 13.4942 622.153 13.2496 624.755 13.2496C627.291 13.2496 629.549 13.4942 631.528 13.9835C633.508 14.4729 635.176 15.1735 636.533 16.0854C637.889 16.9973 638.912 18.1206 639.602 19.4551C640.314 20.7674 640.647 22.2576 640.603 23.9257L639.869 38.1383C639.847 38.8946 639.758 39.6063 639.602 40.2736C639.468 40.9186 639.246 41.5525 638.935 42.1753C638.646 42.798 638.267 43.4208 637.8 44.0436C637.333 44.6664 636.777 45.3114 636.132 45.9786L620.885 63.5276V63.7945H636.933C637.511 63.7945 637.956 63.8612 638.267 63.9947C638.601 64.1281 638.846 64.3283 639.001 64.5952C639.157 64.8399 639.246 65.1401 639.268 65.496C639.313 65.8296 639.335 66.2077 639.335 66.6303C639.335 67.2531 639.313 67.7758 639.268 68.1984C639.246 68.621 639.157 68.9657 639.001 69.2327C638.846 69.4996 638.601 69.6997 638.267 69.8332C637.956 69.9444 637.511 70 636.933 70H612.878C612.389 70 611.989 69.9778 611.677 69.9333C611.366 69.8665 611.121 69.7553 610.943 69.5996C610.765 69.4217 610.643 69.1882 610.576 68.899C610.509 68.6099 610.476 68.2318 610.476 67.7647V66.7638ZM648.343 23.6588C648.299 21.9907 648.621 20.5116 649.311 19.2215C650.022 17.9315 651.045 16.8416 652.38 15.952C653.714 15.0623 655.349 14.395 657.284 13.9502C659.219 13.4831 661.399 13.2496 663.823 13.2496C666.248 13.2496 668.428 13.4831 670.363 13.9502C672.298 14.395 673.932 15.0623 675.267 15.952C676.624 16.8416 677.647 17.9315 678.336 19.2215C679.048 20.5116 679.382 21.9907 679.337 23.6588L678.37 60.8919C678.325 62.3376 677.958 63.6499 677.269 64.8287C676.601 65.9853 675.634 66.9862 674.366 67.8314C673.121 68.6544 671.608 69.2883 669.829 69.7331C668.049 70.1779 666.048 70.4004 663.823 70.4004C661.577 70.4004 659.564 70.1779 657.785 69.7331C656.028 69.2883 654.526 68.6544 653.281 67.8314C652.035 66.9862 651.068 65.9853 650.378 64.8287C649.711 63.6499 649.355 62.3376 649.311 60.8919L648.343 23.6588ZM658.419 59.5907C658.374 61.4591 658.775 62.7825 659.62 63.5609C660.465 64.3172 661.866 64.6953 663.823 64.6953C665.781 64.6953 667.182 64.3172 668.027 63.5609C668.895 62.7825 669.306 61.4591 669.262 59.5907L668.261 23.6588C668.238 22.7024 668.127 21.9351 667.927 21.3568C667.727 20.7562 667.438 20.3114 667.06 20.0222C666.704 19.7109 666.248 19.5107 665.692 19.4217C665.158 19.3105 664.535 19.2549 663.823 19.2549C663.112 19.2549 662.478 19.3105 661.922 19.4217C661.388 19.5107 660.932 19.7109 660.554 20.0222C660.198 20.3114 659.92 20.7562 659.72 21.3568C659.542 21.9351 659.442 22.7024 659.42 23.6588L658.419 59.5907ZM688.612 66.7638C688.612 65.9853 688.69 65.3625 688.846 64.8955C689.024 64.4061 689.302 63.9502 689.68 63.5276L705.027 42.8759C705.516 42.2754 705.939 41.7304 706.295 41.2411C706.65 40.7518 706.928 40.2402 707.129 39.7064C707.351 39.1726 707.507 38.5943 707.596 37.9715C707.685 37.3488 707.718 36.6036 707.696 35.7362L707.329 23.6588C707.307 22.7024 707.195 21.9351 706.995 21.3568C706.795 20.7562 706.506 20.3114 706.128 20.0222C705.772 19.7109 705.316 19.5107 704.76 19.4217C704.226 19.3105 703.603 19.2549 702.892 19.2549C702.18 19.2549 701.546 19.3105 700.99 19.4217C700.456 19.5107 700 19.7109 699.622 20.0222C699.266 20.3114 698.988 20.7562 698.788 21.3568C698.61 21.9351 698.51 22.7024 698.488 23.6588L698.087 37.8047C698.065 38.472 697.965 39.0169 697.787 39.4395C697.609 39.8399 697.32 40.1512 696.92 40.3737C696.519 40.5738 695.985 40.7073 695.318 40.774C694.651 40.8407 693.828 40.8741 692.849 40.8741C691.871 40.8741 691.059 40.8407 690.414 40.774C689.769 40.7073 689.257 40.5738 688.879 40.3737C688.501 40.1512 688.223 39.8399 688.045 39.4395C687.889 39.0169 687.8 38.472 687.778 37.8047L686.777 23.9257C686.733 22.2576 687.055 20.7674 687.745 19.4551C688.456 18.1206 689.502 16.9973 690.881 16.0854C692.26 15.1735 693.95 14.4729 695.952 13.9835C697.976 13.4942 700.289 13.2496 702.892 13.2496C705.427 13.2496 707.685 13.4942 709.664 13.9835C711.644 14.4729 713.312 15.1735 714.669 16.0854C716.025 16.9973 717.049 18.1206 717.738 19.4551C718.45 20.7674 718.783 22.2576 718.739 23.9257L718.005 38.1383C717.983 38.8946 717.894 39.6063 717.738 40.2736C717.605 40.9186 717.382 41.5525 717.071 42.1753C716.782 42.798 716.404 43.4208 715.936 44.0436C715.469 44.6664 714.913 45.3114 714.268 45.9786L699.021 63.5276V63.7945H715.069C715.647 63.7945 716.092 63.8612 716.404 63.9947C716.737 64.1281 716.982 64.3283 717.138 64.5952C717.293 64.8399 717.382 65.1401 717.404 65.496C717.449 65.8296 717.471 66.2077 717.471 66.6303C717.471 67.2531 717.449 67.7758 717.404 68.1984C717.382 68.621 717.293 68.9657 717.138 69.2327C716.982 69.4996 716.737 69.6997 716.404 69.8332C716.092 69.9444 715.647 70 715.069 70H691.014C690.525 70 690.125 69.9778 689.813 69.9333C689.502 69.8665 689.257 69.7553 689.079 69.5996C688.901 69.4217 688.779 69.1882 688.712 68.899C688.646 68.6099 688.612 68.2318 688.612 67.7647V66.7638ZM726.579 57.8225C726.246 57.8225 725.856 57.7891 725.412 57.7224C724.989 57.6335 724.577 57.5111 724.177 57.3554C723.799 57.1775 723.477 56.9551 723.21 56.6882C722.943 56.4213 722.809 56.1099 722.809 55.754V54.653C722.809 53.9858 722.909 53.3407 723.11 52.718C723.332 52.0952 723.565 51.4391 723.81 50.7496L734.82 16.7527C735.042 16.0632 735.309 15.5182 735.621 15.1179C735.932 14.6953 736.332 14.3728 736.822 14.1504C737.333 13.9279 737.956 13.7834 738.69 13.7166C739.424 13.6499 740.347 13.6165 741.459 13.6165C744.084 13.6165 745.841 13.8946 746.731 14.4506C747.642 15.0067 747.865 15.8519 747.398 16.9862L733.585 51.2834H743.461L743.127 39.4061C743.105 38.8278 743.183 38.3608 743.361 38.0049C743.561 37.649 743.884 37.371 744.328 37.1708C744.795 36.9706 745.385 36.8372 746.097 36.7705C746.831 36.6815 747.72 36.637 748.766 36.637C749.944 36.637 750.868 36.6704 751.535 36.7371C752.224 36.8038 752.725 36.9373 753.036 37.1375C753.37 37.3154 753.57 37.5934 753.637 37.9715C753.726 38.3274 753.759 38.8056 753.737 39.4061L752.936 67.7313C752.914 68.2429 752.814 68.6544 752.636 68.9657C752.48 69.2549 752.202 69.4773 751.802 69.633C751.424 69.7887 750.934 69.8888 750.334 69.9333C749.733 69.9778 748.988 70 748.098 70C747.209 70 746.497 69.9778 745.963 69.9333C745.429 69.8888 745.007 69.7887 744.695 69.633C744.406 69.4773 744.206 69.2549 744.095 68.9657C743.984 68.6544 743.928 68.2429 743.928 67.7313L743.628 57.8225H727.58H726.579Z" fill="black"/>
</mask>
<g mask="url(#mask0_37_16595)">
<path d="M-9.01551 62.6334C-24.2281 69.807 -59.7244 117.476 -97.393 126.995C-5.42591 110.46 185.385 65.0874 373.903 101.542C609.549 147.111 888.714 108.034 802.578 -86.9176C794.2 -39.7517 739.451 51.7516 587.481 40.4374C397.518 26.2948 312.658 -71.8174 -9.01551 62.6334Z" fill="#0F95B2"/>
<path d="M468.039 -3.70537C638.449 27.3825 697.785 -10.1461 705.54 -29.0837L726.787 -146.313C811.469 -113.416 796.83 -62.0152 790.985 -45.5516C745.595 82.2879 587.901 67.3784 388.612 52.669C159.431 28.9443 98.2208 18.9798 -96.3904 127.045C-89.2051 77.3428 -47.4495 -97.7461 468.039 -3.70537Z" fill="#06B6D4" stroke="white" stroke-width="0.948992"/>
<circle cx="306.524" cy="44.6026" r="0.948992" fill="white"/>
<circle cx="253.381" cy="55.9905" r="0.948992" fill="white"/>
<circle cx="93.9502" cy="46.5006" r="1.89798" fill="white"/>
<circle cx="149.941" cy="38.9087" r="1.89798" fill="white"/>
<circle cx="125.267" cy="64.5314" r="0.948992" fill="white"/>
<circle cx="231.554" cy="37.9597" r="1.89798" fill="white"/>
<circle cx="417.556" cy="55.0415" r="1.89798" fill="white"/>
<circle cx="469.751" cy="56.9395" r="1.89798" fill="white"/>
<circle cx="543.772" cy="62.6335" r="1.89798" fill="white"/>
<circle cx="581.732" cy="17.0818" r="1.89798" fill="white"/>
<circle cx="633.926" cy="18.9798" r="1.89798" fill="white"/>
<circle cx="655.753" cy="55.9905" r="1.89798" fill="white"/>
<circle cx="717.438" cy="36.0617" r="1.89798" fill="white"/>
<circle cx="750.652" cy="39.8576" r="1.89798" fill="white"/>
<circle cx="363.464" cy="33.2147" r="0.948992" fill="white"/>
</g>
</svg>
